<svg width="60" height="60" viewBox="0 0 60 60" fill="none" xmlns="http://www.w3.org/2000/svg">
<path d="M57.1875 26.25V22.5H55.3125H12.1875V26.25H57.1875Z" fill="#FF9811"/>
<path d="M57.1875 37.5V33.75H55.3125H12.1875V37.5H57.1875Z" fill="#FF9811"/>
<path d="M57.1875 11.25V7.5H55.3125H12.1875V11.25H57.1875Z" fill="#3D9AE2"/>
<path d="M57.1875 22.5V18.75H55.3125H12.1875V22.5H57.1875Z" fill="#3D9AE2"/>
<path d="M57.1875 41.25V37.5H55.3125H12.1875V41.25H57.1875Z" fill="#3D9AE2"/>
<path d="M12.1875 21.5625V18.75H10.3125C9.31794 18.75 8.36411 18.3549 7.66085 17.6516C6.95759 16.9484 6.5625 15.9946 6.5625 15C6.5625 14.0054 6.95759 13.0516 7.66085 12.3484C8.36411 11.6451 9.31794 11.25 10.3125 11.25H12.1875V7.5H10.3125C8.32338 7.5 6.41572 8.29018 5.0092 9.6967C3.60268 11.1032 2.8125 13.0109 2.8125 15C2.8125 16.9891 3.60268 18.8968 5.0092 20.3033C6.41572 21.7098 8.32338 22.5 10.3125 22.5H12.1875V21.5625Z" fill="#1E81CE"/>
<path d="M12.1875 26.25V22.5H10.3125C8.32338 22.5 6.41572 23.2902 5.0092 24.6967C3.60268 26.1032 2.8125 28.0109 2.8125 30C2.8125 31.9891 3.60268 33.8968 5.0092 35.3033C6.41572 36.7098 8.32338 37.5 10.3125 37.5H12.1875V33.75H10.3125C9.31794 33.75 8.36411 33.3549 7.66085 32.6516C6.95759 31.9484 6.5625 30.9946 6.5625 30C6.5625 29.0054 6.95759 28.0516 7.66085 27.3484C8.36411 26.6451 9.31794 26.25 10.3125 26.25H12.1875Z" fill="#EE8700"/>
<path d="M12.1875 41.25V37.5H10.3125C8.32338 37.5 6.41572 38.2902 5.0092 39.6967C3.60268 41.1032 2.8125 43.0109 2.8125 45C2.8125 46.9891 3.60268 48.8968 5.0092 50.3033C6.41572 51.7098 8.32338 52.5 10.3125 52.5H12.1875V48.75H10.3125C9.31794 48.75 8.36411 48.3549 7.66085 47.6517C6.95759 46.9484 6.5625 45.9946 6.5625 45C6.5625 44.0054 6.95759 43.0516 7.66085 42.3484C8.36411 41.6451 9.31794 41.25 10.3125 41.25H12.1875Z" fill="#1E81CE"/>
<path d="M21.5625 37.5V33.75L18.75 36.5625L15.9375 33.75V37.5V41.25V45H21.5625V41.25V37.5Z" fill="#FF5023"/>
<path d="M21.5625 22.5V18.75L18.75 21.5625L15.9375 18.75V22.5V26.25V30H21.5625V26.25V22.5Z" fill="#FF5023"/>
<path d="M15.9375 45V41.25H10.3125C9.31794 41.25 8.36411 41.6451 7.66085 42.3484C6.95759 43.0516 6.5625 44.0054 6.5625 45C6.5625 45.9946 6.95759 46.9484 7.66085 47.6517C8.36411 48.3549 9.31794 48.75 10.3125 48.75H55.3125C54.3179 48.75 53.3641 48.3549 52.6609 47.6517C51.9576 46.9484 51.5625 45.9946 51.5625 45H15.9375Z" fill="#ACABB1"/>
<path d="M15.9375 30V26.25H10.3125C9.31794 26.25 8.36411 26.6451 7.66085 27.3484C6.95759 28.0516 6.5625 29.0054 6.5625 30C6.5625 30.9946 6.95759 31.9484 7.66085 32.6516C8.36411 33.3549 9.31794 33.75 10.3125 33.75H55.3125C54.3179 33.75 53.3641 33.3549 52.6609 32.6516C51.9576 31.9484 51.5625 30.9946 51.5625 30H15.9375Z" fill="#ACABB1"/>
<path d="M55.3125 26.25H21.5625V30H51.5625C51.5625 29.0054 51.9576 28.0516 52.6609 27.3484C53.3641 26.6451 54.3179 26.25 55.3125 26.25Z" fill="#ACABB1"/>
<path d="M51.5625 15C51.5625 14.0054 51.9576 13.0516 52.6609 12.3484C53.3641 11.6451 54.3179 11.25 55.3125 11.25H10.3125C9.31794 11.25 8.36411 11.6451 7.66085 12.3484C6.95759 13.0516 6.5625 14.0054 6.5625 15C6.5625 15.9946 6.95759 16.9484 7.66085 17.6516C8.36411 18.3549 9.31794 18.75 10.3125 18.75H55.3125C54.3179 18.75 53.3641 18.3549 52.6609 17.6516C51.9576 16.9484 51.5625 15.9946 51.5625 15Z" fill="#ACABB1"/>
<path d="M55.3125 41.25H21.5625V45H51.5625C51.5625 44.0054 51.9576 43.0516 52.6609 42.3484C53.3641 41.6451 54.3179 41.25 55.3125 41.25Z" fill="#ACABB1"/>
<path d="M57.1875 52.5V48.75H55.3125H12.1875V52.5H57.1875Z" fill="#3D9AE2"/>
<path d="M55.3125 47.8125H57.1875C57.4361 47.8125 57.6746 47.9113 57.8504 48.0871C58.0262 48.2629 58.125 48.5014 58.125 48.75V52.5C58.125 52.7486 58.0262 52.9871 57.8504 53.1629C57.6746 53.3387 57.4361 53.4375 57.1875 53.4375H10.3125C8.42167 53.4348 6.58658 52.797 5.10161 51.6265C3.61664 50.456 2.56786 48.8206 2.12353 46.9828C1.6792 45.1449 1.86507 43.2111 2.65132 41.4915C3.43757 39.7719 4.77863 38.3662 6.45936 37.5C5.6792 37.1018 4.96466 36.5865 4.34061 35.9719C3.40191 35.031 2.69861 33.8818 2.28795 32.6177C1.87729 31.3537 1.77087 30.0106 1.97736 28.6977C2.18384 27.3847 2.6974 26.1391 3.47623 25.0621C4.25506 23.9852 5.27717 23.1073 6.45936 22.5C5.6792 22.1018 4.96466 21.5865 4.34061 20.9719C3.16244 19.7903 2.36068 18.2861 2.0365 16.6493C1.71232 15.0124 1.88026 13.3163 2.51912 11.7748C3.15798 10.2333 4.23913 8.91558 5.62614 7.98794C7.01315 7.0603 8.64386 6.56429 10.3125 6.5625H57.1875C57.4361 6.5625 57.6746 6.66127 57.8504 6.83709C58.0262 7.0129 58.125 7.25136 58.125 7.5V11.25C58.125 11.4986 58.0262 11.7371 57.8504 11.9129C57.6746 12.0887 57.4361 12.1875 57.1875 12.1875H55.3125C54.5666 12.1875 53.8512 12.4838 53.3237 13.0113C52.7963 13.5387 52.5 14.2541 52.5 15C52.5 15.7459 52.7963 16.4613 53.3237 16.9887C53.8512 17.5162 54.5666 17.8125 55.3125 17.8125H57.1875C57.4361 17.8125 57.6746 17.9113 57.8504 18.0871C58.0262 18.2629 58.125 18.5014 58.125 18.75V26.25C58.125 26.4986 58.0262 26.7371 57.8504 26.9129C57.6746 27.0887 57.4361 27.1875 57.1875 27.1875H55.3125C54.5666 27.1875 53.8512 27.4838 53.3237 28.0113C52.7963 28.5387 52.5 29.2541 52.5 30C52.5 30.7459 52.7963 31.4613 53.3237 31.9887C53.8512 32.5162 54.5666 32.8125 55.3125 32.8125H57.1875C57.4361 32.8125 57.6746 32.9113 57.8504 33.0871C58.0262 33.2629 58.125 33.5014 58.125 33.75V41.25C58.125 41.4986 58.0262 41.7371 57.8504 41.9129C57.6746 42.0887 57.4361 42.1875 57.1875 42.1875H55.3125C54.5666 42.1875 53.8512 42.4838 53.3237 43.0113C52.7963 43.5387 52.5 44.2541 52.5 45C52.5 45.7459 52.7963 46.4613 53.3237 46.9887C53.8512 47.5162 54.5666 47.8125 55.3125 47.8125ZM3.74999 45C3.74776 45.8624 3.91598 46.7168 4.24499 47.514C4.574 48.3112 5.0573 49.0355 5.66713 49.6454C6.27696 50.2552 7.00129 50.7385 7.79849 51.0675C8.5957 51.3965 9.45006 51.5647 10.3125 51.5625H11.25V49.6875H10.3125C9.06928 49.6875 7.877 49.1936 6.99792 48.3146C6.11885 47.4355 5.62499 46.2432 5.62499 45C5.62499 43.7568 6.11885 42.5645 6.99792 41.6854C7.877 40.8064 9.06928 40.3125 10.3125 40.3125H11.25V38.4375H10.3125C8.57261 38.4395 6.90457 39.1315 5.67429 40.3618C4.44401 41.5921 3.75197 43.2601 3.74999 45ZM50.7187 45.9375H10.3125V44.0625H15V42.1875H10.3125C9.56656 42.1875 8.85119 42.4838 8.32375 43.0113C7.7963 43.5387 7.49999 44.2541 7.49999 45C7.49999 45.7459 7.7963 46.4613 8.32375 46.9887C8.85119 47.5162 9.56656 47.8125 10.3125 47.8125H51.5906C51.1595 47.2629 50.8612 46.6213 50.7187 45.9375ZM51.5906 42.1875H22.5V44.0625H50.7187C50.8612 43.3787 51.1595 42.7371 51.5906 42.1875ZM50.7187 30.9375H10.3125V29.0625H15V27.1875H10.3125C9.56656 27.1875 8.85119 27.4838 8.32375 28.0113C7.7963 28.5387 7.49999 29.2541 7.49999 30C7.49999 30.7459 7.7963 31.4613 8.32375 31.9887C8.85119 32.5162 9.56656 32.8125 10.3125 32.8125H51.5906C51.1595 32.2629 50.8612 31.6213 50.7187 30.9375ZM51.5906 27.1875H22.5V29.0625H50.7187C50.8612 28.3787 51.1595 27.7371 51.5906 27.1875ZM50.7187 14.0625C50.8612 13.3787 51.1595 12.7371 51.5906 12.1875H10.3125C9.56656 12.1875 8.85119 12.4838 8.32375 13.0113C7.7963 13.5387 7.49999 14.2541 7.49999 15C7.49999 15.7459 7.7963 16.4613 8.32375 16.9887C8.85119 17.5162 9.56656 17.8125 10.3125 17.8125H51.5906C51.1595 17.2629 50.8612 16.6213 50.7187 15.9375H10.3125V14.0625H50.7187ZM15 21.5625V19.6875H13.125V21.5625H15ZM13.125 23.4375V25.3125H15V23.4375H13.125ZM18.75 22.5C18.5013 22.499 18.2626 22.4016 18.0844 22.2281L16.875 21.0094V29.0625H20.625V21.0094L19.4156 22.2281C19.2373 22.4016 18.9987 22.499 18.75 22.5ZM19.3031 19.6875H18.1969L18.75 20.2406L19.3031 19.6875ZM15 36.5625V34.6875H13.125V36.5625H15ZM13.125 38.4375V40.3125H15V38.4375H13.125ZM18.75 37.5C18.5013 37.499 18.2626 37.4016 18.0844 37.2281L16.875 36.0094V44.0625H20.625V36.0094L19.4156 37.2281C19.2373 37.4016 18.9987 37.499 18.75 37.5ZM19.3031 34.6875H18.1969L18.75 35.2406L19.3031 34.6875ZM3.74999 30C3.74776 30.8624 3.91598 31.7168 4.24499 32.514C4.574 33.3112 5.0573 34.0355 5.66713 34.6454C6.27696 35.2552 7.00129 35.7385 7.79849 36.0675C8.5957 36.3965 9.45006 36.5647 10.3125 36.5625H11.25V34.6875H10.3125C9.06928 34.6875 7.877 34.1936 6.99792 33.3146C6.11885 32.4355 5.62499 31.2432 5.62499 30C5.62499 28.7568 6.11885 27.5645 6.99792 26.6854C7.877 25.8064 9.06928 25.3125 10.3125 25.3125H11.25V23.4375H10.3125C8.57261 23.4395 6.90457 24.1315 5.67429 25.3618C4.44401 26.5921 3.75197 28.2601 3.74999 30ZM11.25 8.4375H10.3125C8.572 8.4375 6.9028 9.1289 5.6721 10.3596C4.44139 11.5903 3.74999 13.2595 3.74999 15C3.74999 16.7405 4.44139 18.4097 5.6721 19.6404C6.9028 20.8711 8.572 21.5625 10.3125 21.5625H11.25V19.6875H10.3125C9.06928 19.6875 7.877 19.1936 6.99792 18.3146C6.11885 17.4355 5.62499 16.2432 5.62499 15C5.62499 13.7568 6.11885 12.5645 6.99792 11.6854C7.877 10.8064 9.06928 10.3125 10.3125 10.3125H11.25V8.4375ZM56.25 10.3125V8.4375H13.125V10.3125H56.25ZM56.25 19.6875H22.5V21.5625H56.25V19.6875ZM56.25 25.3125V23.4375H22.5V25.3125H56.25ZM56.25 34.6875H22.5V36.5625H56.25V34.6875ZM56.25 40.3125V38.4375H22.5V40.3125H56.25ZM13.125 49.6875V51.5625H56.25V49.6875H13.125Z" fill="black"/>
</svg>
